<svg xmlns="http://www.w3.org/2000/svg" viewBox="0 0 60 60"><path d="M60 45.4h-3.3l-.2 2.8h-3.3l-.2-2.7H7.2l-.3 2.6H3.6l-.2-2.7H.2L0 43.7V28.9c0-2.4.7-4.2 2.8-5.5.4-.2.6-.8.7-1.3v-3c.1-4.2 2.7-7.2 6.9-7.2l14.2-.1c1.7 0 4 0 5.4 1.8 1.8-1.9 4.1-1.7 7.1-1.8h11.8c4.9 0 7.6 2.8 7.6 7.7v2.1c-.1 1 .3 1.6 1.1 2.3 1 .8 2.2 2.2 2.2 3.4.3 5.9.2 11.9.2 18.1zM7 35.9v-7.2c0-1.3-.3-2.3-1.8-2.3-1.4 0-1.8 1.1-1.7 2.4v12.8h53V29c0-1.3-.2-2.5-1.8-2.5S53 27.8 53 29v6.9H7zm24.8-3.7h17.6v-2.3c-.1-2.7.4-5.1 3.1-6.5.3-.1.5-.6.5-.8 0-1.4.1-2.9-.1-4.3-.3-1.7-1.4-2.8-3.2-2.8H35a3 3 0 0 0-3.1 3.1l-.1 13.6zm-21.2 0h17.6V18.6c0-2-1.4-3.2-3.6-3.2H11c-1.5 0-3.1.3-3.5 1.9-.4 1.9-.3 3.9-.3 5.9l.6.4c2.1 1.2 2.9 3.1 2.8 5.5v3.1z"></path></svg>