<svg xmlns="http://www.w3.org/2000/svg" viewBox="0 0 60 60"><path d="M24.4 55.8V36.5h-3.6v5.3c0 .5.7.9 1 1.4.4.8 1.1 1.7.9 2.3-.3.7-1.2 1.5-2 1.7a9 9 0 0 1-4 0c-.9-.2-1.9-1-2.2-1.8-.2-.5.5-1.3 1-2.2.3-.5.8-1.1.9-1.6v-5.2h-5.5c-2 0-2.7-1-2.3-3l6.1-30.5C15.2.8 16 0 18.1 0H42c2 0 2.9.8 3.2 2.7l6.1 30.6c.4 2.1-.3 3.1-2.4 3.1H35.6v19.4h9.1c1.3 0 2.4.7 2.5 2.2 0 1.4-1.7 1.9-2.4 2L15 59.9c-.7 0-2-1.2-2.1-2-.2-1.3.9-2.1 2.3-2.1h9.2zm22.1-23.7c0-.4.1-.6 0-.8l-5.2-26c-.1-.4-1-.9-1.5-.9H20.2c-.5 0-1.4.8-1.5 1.3l-3.6 17.7-1.7 8.7h33.1zM31 55.7V36.5h-2v19.2h2z"></path></svg>