<svg xmlns="http://www.w3.org/2000/svg" viewBox="0 0 60 60"><path d="M56.7 8.5c-3.7-.1-6.2-.2-9.7.3-3.3.5-6.6 1.7-10 2.7l-.6-1.5-2.2-6.3c-.7-1.8-1.7-3.7-4-3.7-2.5 0-3.4 1.9-4.2 3.8l-1.7 4.6-2.4 7.9A42 42 0 0 0 2.5 13c-.8.1-2 .4-2.2 1.4 0 1.5 1 2.3 1.8 2.7 2 .9 4.3 1.3 6.3 2.2 3.9 1.7 7.2 4.3 9.7 8.5H9.4c-1.4 0-2.7.5-2.7 2 0 .8 1.2 1.6 1.8 2.4.5.6 1.2 1 1.5 1.6a2311 2311 0 0 1 9.2 23.7c.7 1.8 1.7 2.5 3.7 2.5h14.8c2 0 3-.7 3.6-2.5C44 49.7 47 42 50 34.3c.4-1.1.6-2.1 2.2-2.4 1.7-.4 2.1-2.3.8-3.3a5 5 0 0 0-2.7-.8h-9.9c-.3-4.5 1.6-7.6 4.8-10.1a24 24 0 0 1 12.3-4.8c.9-.1 2.3-.7 2.1-2.3-.3-1.8-2.2-2.1-2.9-2.1zm-30.2 7.8a334 334 0 0 0 3.2-10.7c.2-.5.6-.5.8 0l2.6 8.1c.1.3-.1.9-.4 1.1l-4.6 5.1c-1.9-.5-2.2-1.8-1.6-3.6zm-9.6 2.6c4.8 1.2 8.7 4.2 12.1 8.8h-5c-.5 0-1.1-.4-1.4-.8-2-2.6-3.9-5.4-5.7-8zm29.3 13.4-1.6 4.1-6.7 17.5c-.5 1.2-1 1.8-2.4 1.8l-11-.1c-.7 0-1.8-.6-2-1.2l-8.2-21.2-.2-.9h32.1zm-9.9-4.5h-2.9c-.6-1.6-2.7-3.3-1.2-5.6 2.3-3.6 5.4-6 9.4-7.4a16.2 16.2 0 0 0-5.3 13z"></path></svg>