<svg xmlns="http://www.w3.org/2000/svg" viewBox="0 0 40 40"><path d="M36.2 10.2H32V6.3H6.5v6.6H1.9v1.9h4.6v3.8H0v1.9h6.5V30h4.8c.4 2.2 2.3 3.8 4.6 3.8s4.2-1.6 4.6-3.8h5.9c.4 2.2 2.3 3.8 4.6 3.8s4.2-1.6 4.6-3.8H40V18l-3.8-7.8zM18.4 30.3l-.2.4-.6.6-.2.1-.2.1-.2.1-.3.1h-.2l-.5.1-.5-.1h-.2l-.3-.1-.2-.1-.2-.1-.2-.1-.8-.9c-.2-.4-.3-.8-.3-1.3s.1-.9.3-1.3c.2-.4.5-.7.8-.9l.2-.1.2-.1.2-.1.3-.1h.2l.5-.1.5.1h.2l.3.1.2.1.2.1.2.1.6.6.2.3a2.8 2.8 0 0 1 0 2.5zm8-2.3h-5.9c-.4-2.2-2.3-3.8-4.6-3.8s-4.2 1.6-4.6 3.8H8.4v-7.6h7.2v-1.9H8.4v-3.8h9.1v-1.9H8.4V8.2h21.7v16.2a4.7 4.7 0 0 0-3.7 3.6zm6.3 3.3-.2.1-.2.1-.2.1-.3.1h-.2l-.5.1-.5-.1h-.2l-.3-.1-.2-.1-.2-.1-.2-.1-.8-.9c-.2-.4-.3-.8-.3-1.3a2.8 2.8 0 1 1 5.6 0c0 .5-.1.9-.3 1.3l-1 .9zm5.4-3.3h-2.4a4.9 4.9 0 0 0-3.6-3.7v-3.9h6.1V28zm0-9.4H32v-6.5h3l3.1 6.3v.2z"></path></svg>